<svg version="1" xmlns="http://www.w3.org/2000/svg" width="933.333" height="933.333" viewBox="0 0 700.000000 700.000000"><path d="M137.6 1c-4.8 1.5-10.6 6.1-13.4 10.9-2.2 3.7-2.7 6.1-3.1 14.4l-.6 10-44.5.1c-43 .1-44.7.2-49.1 2.2-5.3 2.5-9.1 6.2-12.2 11.9-2 3.7-2.2 5.8-2.5 24.7-.4 23 .5 28.9 5.5 34.8 3.6 4.4 9.4 7.8 14.2 8.6 2.3.4 4.1 1.2 4.2 1.8.1 1.4.1 493.7 0 495.3-.1.6-1.9 1.4-4 1.8-5.4.9-12.5 5.6-15.4 10.2-4.4 7-4.7 9.4-4.4 32.2.2 24.3.7 26.2 7.9 33.2 7.7 7.5-7.9 6.9 198.2 6.7 178.1-.3 185.2-.4 188.8-2.2 7.1-3.5 13.6-12.1 14.3-19 .2-1.7.4-11.2.4-21.1l.1-18h91.8c50.4 0 93.9-.3 96.6-.8 11.1-1.9 20.9-9.8 25.9-20.6l3-6.6.2-23c.2-12.7.3-23.5.4-24.2.2-2.3 6.2-8.2 8.9-8.7 1.5-.3 5-.8 7.7-1.1 6.5-.8 16.1-5.4 20.9-10.2 2.1-2.1 5.3-6.7 7-10.3l3.1-6.5.2-200.1c.3-183.4.2-200.5-1.4-205-2.5-7.5-7.8-14.8-13.7-18.8-10.3-7.1-2.2-6.7-132.8-6.7L422 96.8l-.1-18.6c0-10.3-.3-20-.5-21.6-1.3-7.5-8.7-16.1-16-18.7-3.1-1.1-13.6-1.4-48.1-1.4H313v-8.1c0-9.9-2-16-6.7-20.9-7.5-7.8-2.5-7.3-88.8-7.3-42.4 0-78.3.4-79.9.8zm152.3 22.8c.8 1.3.5 11.1-.3 11.9-.8.8-144 .8-145.2 0-.8-.4-1.1-7.6-.5-11.9.2-1.2 5.7-1.3 76-1.2 47.6.1 69.5.5 70 1.2zm108.9 53.8c.2 14 0 18.3-1 18.6-.7.3-82.5.5-181.8.4l-180.5-.1-.3-17.5c-.1-9.6 0-18 .2-18.7.4-1.1 34.7-1.3 181.8-1.1l181.3.3.3 18.1zM375 368.2V617H59V119.4h316v248.8zm283.6-246.8c1.7 1 3.9 3.1 4.8 4.7 1.5 2.6 1.7 17.9 1.7 199.4 0 188.4-.1 196.8-1.8 199.8-2.5 4.2-6.7 6.4-13.8 7.3-7.5.8-12.3 2.5-17.2 6.1-7.6 5.5-13.4 14.3-14.7 22.3-.3 1.9-.6 12.9-.6 24.5-.1 19.1-.3 21.3-2.2 24.6-4.1 7.3 3.1 6.9-112.8 6.9-57.2 0-104.1-.3-104.1-.8-.3-1.8-.5-494.8-.2-495.7.2-.7 41.8-1 129.1-1 124.2 0 128.8.1 131.8 1.9zM397.8 639.9c1.6.1 1.8 35.6.1 36.7-.8.5-327.7.9-358.6.5L35 677v-18.4c0-11.5.4-18.6 1-18.8.9-.3 358.7-.2 361.8.1z"/><path d="M91.3 146.5c-5.9 2.6-6.6 5.5-6.6 28.5 0 14.3.3 21.2 1.2 22.8 1.6 2.9 6.9 6.2 10.1 6.2 3.2 0 8.5-3.2 10.1-6.1.8-1.6 1.2-8.9 1.2-23.4 0-23.5-.4-25.4-7-28.1-4-1.7-4.9-1.7-9 .1zM138.7 146.9c-5.1 3-5.7 6-5.7 27.5 0 22.6.6 25.2 6.4 28 3.8 1.8 7.9 1.7 11.3-.4 4.4-2.8 4.8-4.5 4.9-26 .2-21.5-.3-24.7-4.3-28.3-2.7-2.4-9.1-2.8-12.6-.8zM188.3 146.4c-6.3 2.8-6.8 4.7-6.8 27.6 0 23.1.6 25.9 6 28.4 6.3 3 12.1 1.3 15.1-4.5 2.1-4.2 2.1-41.6-.1-46.2-2.6-5.6-8.4-7.8-14.2-5.3zM236.2 146.7c-5.8 2.8-6.3 4.9-6.3 28.4 0 21 0 21.1 2.5 24.4 4.6 6 13.2 5.6 18-.8 2-2.7 2.1-4.1 2.1-24.1-.1-23.8-.5-25.4-7-28.2-4.3-1.8-5.2-1.7-9.3.3zM285.5 145.9c-1.1.5-3.1 2.1-4.5 3.6-2.5 2.7-2.5 2.7-2.7 24.3-.2 24.1.2 25.8 6.3 28.7 4.1 1.9 6.9 1.9 10.3-.1 5.3-3.2 5.6-4.3 5.8-26.9.3-22.2-.3-25.5-4.6-28.2-2.6-1.7-8.3-2.4-10.6-1.4zM334.3 146.1c-1.7.5-4.2 2.3-5.4 4.1-2.1 2.9-2.3 4.1-2.4 22.8 0 10.9.3 21.1.7 22.7 2.5 9.7 17.2 10.7 21 1.4.6-1.5 1-10.9 1-23.3 0-23-.5-24.8-6.9-27.4-3.6-1.6-3.6-1.6-8-.3zM91.5 533.4c-6.1 2.6-6.7 4.9-6.7 25 0 26.5-.2 25.1 3.1 28.8 2.6 2.9 3.6 3.3 7.9 3.3 6.1 0 9.8-2.9 10.9-8.4.3-2 .6-12.2.6-22.7 0-16.5-.3-19.4-1.8-21.8-3.1-4.7-8.9-6.4-14-4.2zM139.3 533.6c-5.7 2.8-6.4 5.9-6.3 28.6.2 22.2.7 24.6 6 27.3 5.4 2.8 11.8 1.1 15.1-3.9 1.9-2.9 2.2-42.9.4-46.6-3-5.8-9.5-8.2-15.2-5.4zM188.3 533.5c-6.2 2.6-6.7 4.5-6.8 27.3-.1 18.2.1 20.9 1.8 24.3 2.1 4.4 7.4 6.7 12.3 5.5 2.9-.8 8-5.6 8.1-7.8.1-.7.2-10.2.3-21 .1-16.1-.1-20.3-1.4-23-2.7-5.7-8.4-7.8-14.3-5.3zM236.3 533.5c-5.7 2.5-6.3 5.1-6.4 27.8 0 11.6.4 21.4 1 23 1.3 3.4 6.6 6.7 10.8 6.7 4 0 9-4.2 10.1-8.5.5-1.7.8-11.8.7-22.6-.1-18.5-.2-19.7-2.3-22.7-1.4-1.9-3.7-3.5-6-4.2-4.5-1.2-4-1.2-7.9.5zM286.9 532.7c-1.5.2-3.9 1.8-5.5 3.4l-2.9 3v21.8c0 23.8.4 26 5.7 28.7 5.4 2.8 12.1.9 14.8-4.2 1.2-2.1 1.5-7.3 1.5-24.5V539l-3-2.9c-3.1-3-6.2-4-10.6-3.4zM333.4 533.5c-6.1 2.5-6.7 4.9-6.9 26-.1 10.4.2 20.5.6 22.4 1.1 5 4.8 8.2 10.1 8.8 4.1.5 4.8.2 8.2-3.1 4.1-4.1 3.8-1.7 3.8-31.3-.1-11.4-.4-15.8-1.5-18-2.6-4.9-9-7-14.3-4.8zM430.5 146.4c-6.8 3-7 3.7-7.2 25.5-.1 10.8.1 21 .4 22.8 1.1 7 9.3 11.1 16 7.9 5.7-2.7 6.4-5.8 6.3-28.9-.2-22.4-.6-24.4-6.6-27.2-3.8-1.8-5-1.8-8.9-.1zM477.8 146.6c-5.7 3-6.1 4.9-6.1 27.3.1 12.4.5 21.7 1.2 23.3 2.6 6.7 12.7 8.7 17.9 3.5 3.3-3.4 3.8-7.2 3.7-28.9l-.1-18.7-2.8-3.5c-1.5-2-3.5-3.7-4.4-3.8-5.7-.5-7.2-.4-9.4.8zM529 145.6c-8.5 3-9.1 5-9 29.6.2 22.7.7 24.9 6.6 27.4 3.9 1.6 7.9 1.4 11.2-.7 4.3-2.7 4.7-5 4.7-28V152l-3-3c-3-2.9-7.6-4.4-10.5-3.4zM575.3 146.5c-6.2 2.7-6.7 4.6-6.8 26.4-.1 10.8.2 20.9.7 22.5 2.5 9.4 14.9 11.4 19.9 3.2 1.7-2.8 1.9-5.3 1.9-23.9 0-23.3-.5-25.3-6.4-28.1-4.1-1.9-5.1-1.9-9.3-.1zM623.2 146.7c-5.8 2.8-6.2 4.9-6.2 28 0 18.6.2 21.1 1.9 23.9 5 8.2 17.4 6.2 19.9-3.2.5-1.6.8-11.7.7-22.5-.1-16.6-.4-20.1-1.8-22.3-3.2-4.9-9.3-6.5-14.5-3.9zM430.3 533.4c-6.2 2.8-6.8 4.8-7 26.6-.1 15.3.2 20.4 1.4 23.8 2.5 7.2 9.8 9.3 16.4 4.8 4.7-3.2 4.9-4.5 4.9-27.8 0-19.9-.7-23.9-4.8-26.4-3.2-2-7.6-2.4-10.9-1zM479 533.3c-6.4 2.2-7.2 5.2-7.3 26.5-.1 23.1.3 25.4 4.9 28.8 2.8 2.2 4.1 2.6 7.6 2.1 4.9-.7 8.7-4 9.6-8.8.4-1.9.7-12 .6-22.4-.1-21.3-.7-23.5-7.1-26.1-3.8-1.6-3.8-1.6-8.3-.1zM528.5 532.8c-7.7 2.5-8.3 4.8-8.5 28.4-.1 16.8.2 20.4 1.6 23.4 3.9 8.2 15.8 8.3 19.7.2 1.3-2.7 1.5-6.9 1.4-24.4-.2-23.5-.4-24.1-7.4-27-3.5-1.5-3.8-1.5-6.8-.6zM575.3 533.5c-6.2 2.7-6.7 4.6-6.8 26.4-.1 10.8.2 20.9.7 22.5 2.5 9.4 14.9 11.4 19.9 3.2 1.7-2.8 1.9-5.3 1.9-23.8 0-13.5-.4-21.6-1.2-23.2-2.3-5.1-9-7.5-14.5-5.1z"/></svg>