<?xml version="1.0" encoding="UTF-8"?>
<!DOCTYPE svg PUBLIC "-//W3C//DTD SVG 1.1//EN" "http://www.w3.org/Graphics/SVG/1.1/DTD/svg11.dtd">
<svg version="1.1" xmlns="http://www.w3.org/2000/svg" xmlns:xlink="http://www.w3.org/1999/xlink" x="0" y="0" width="42.14" height="42.14" viewBox="0, 0, 602, 602">
  <g id="Layer_1" transform="translate(3.362, -6.64)">
    <g>
      <path d="M297.638,579.64 C147.416,579.64 25.638,457.862 25.638,307.64 C25.638,157.419 147.416,35.64 297.638,35.64 C447.859,35.64 569.638,157.419 569.638,307.64 C569.638,457.862 447.859,579.64 297.638,579.64 z" fill="#FFFFFF"/>
      <path d="M297.638,579.64 C147.416,579.64 25.638,457.862 25.638,307.64 C25.638,157.419 147.416,35.64 297.638,35.64 C447.859,35.64 569.638,157.419 569.638,307.64 C569.638,457.862 447.859,579.64 297.638,579.64 z" fill-opacity="0" stroke="#333333" stroke-width="15"/>
    </g>
    <g>
      <path d="M430.682,459.185 C436.197,457.122 441.909,452.117 444.432,447.137 C446.817,442.431 446.985,436.346 445.208,419.115 C442.858,396.342 442.286,390.651 435.571,323.212 C431.825,285.592 427.302,240.592 425.52,223.212 C422.277,191.576 422.066,188.448 422.471,178.012 C422.824,168.916 418.358,161.335 410.067,156.961 L405.995,154.812 L294.847,154.598 C172.067,154.362 178.85,154.096 171.93,159.419 C170.075,160.845 167.446,163.991 166.087,166.411 C163.93,170.25 163.617,171.573 163.629,176.811 C163.64,181.93 163.988,183.442 165.993,187.099 C168.939,192.473 173.427,196.362 178.707,198.117 C182.471,199.368 191.052,199.473 287.009,199.444 C344.328,199.427 391.407,199.708 391.63,200.069 C391.853,200.43 393.106,212.355 394.415,226.569 C395.724,240.783 397.154,255.832 397.593,260.012 C398.032,264.192 398.741,271.572 399.167,276.412 C401.88,307.193 410.917,404.218 411.591,409.812 L412.05,413.612 L391.169,413.612 C370.125,413.612 367.195,413.969 367.195,416.531 C367.195,419.233 363.516,424.225 360.003,426.29 L356.395,428.412 L286.883,428.629 L217.371,428.846 L213.83,427.132 C210.166,425.359 206.911,421.334 205.951,417.391 C205.654,416.169 204.699,414.789 203.83,414.324 C202.813,413.78 196.08,413.573 184.922,413.745 C168.429,413.999 167.402,414.106 163.595,415.974 C157.937,418.749 152.485,424.618 150.376,430.203 C145.983,441.839 151.554,454.786 162.852,459.198 C166.684,460.694 170.446,460.738 296.565,460.775 C425.132,460.812 426.375,460.797 430.682,459.185 z" fill="#333333" id="path4179"/>
      <path d="M317.537,303.642 C318.782,302.998 320.024,301.888 320.298,301.176 C320.944,299.492 320.944,285.331 320.298,283.648 C318.975,280.2 316.992,280.012 281.998,280.012 L248.722,280.012 L246.758,281.976 C244.921,283.813 244.795,284.483 244.795,292.412 C244.795,300.341 244.921,301.011 246.758,302.848 L248.722,304.812 L281.998,304.812 C309.638,304.812 315.657,304.614 317.537,303.642 z" fill="#333333" id="path4177"/>
      <path d="M328.385,272.46 C338.049,267.715 348.877,254.216 349.107,246.627 C349.181,244.156 348.892,243.639 347.195,243.209 C344.032,242.408 216.596,243.091 215.774,243.913 C214.849,244.837 215.851,246.744 221.501,254.812 C227.355,263.172 235.665,271.575 240.077,273.596 C243.473,275.151 244.977,275.2 283.595,275.009 L323.595,274.812 L328.385,272.46 z" fill="#333333" id="path4175"/>
      <path d="M357.092,235.012 C365.901,230.885 376.83,218.027 378.686,209.605 C379.718,204.922 386.02,205.231 284.624,205.004 C233.458,204.89 190.425,204.996 188.995,205.24 C185.291,205.873 185.604,207.799 190.595,215.07 C196.694,223.957 205.998,233.473 210.795,235.731 L214.795,237.615 L283.595,237.413 L352.395,237.212 L357.092,235.012 z" fill="#333333" id="path4157"/>
    </g>
  </g>
</svg>
