<?xml version="1.0" encoding="UTF-8"?>
<!DOCTYPE svg PUBLIC "-//W3C//DTD SVG 1.1//EN" "http://www.w3.org/Graphics/SVG/1.1/DTD/svg11.dtd">
<svg version="1.1" xmlns="http://www.w3.org/2000/svg" xmlns:xlink="http://www.w3.org/1999/xlink" x="0" y="0" width="42" height="42" viewBox="0, 0, 42, 42">
  <g id="Background">
    <rect x="0" y="0" width="42" height="42" fill="#000000" fill-opacity="0"/>
  </g>
  <g id="Layer_1">
    <g>
      <path d="M20.96,40 C10.444,40 1.92,31.476 1.92,20.96 C1.92,10.445 10.444,1.92 20.96,1.92 C31.475,1.92 40,10.445 40,20.96 C40,31.476 31.475,40 20.96,40 z" fill="#FFFFFF"/>
      <path d="M20.96,40 C10.444,40 1.92,31.476 1.92,20.96 C1.92,10.445 10.444,1.92 20.96,1.92 C31.475,1.92 40,10.445 40,20.96 C40,31.476 31.475,40 20.96,40 z" fill-opacity="0" stroke="#333333" stroke-width="1.05"/>
    </g>
    <g>
      <path d="M23.729,30.707 L10.779,30.707 C10.554,30.707 10.371,30.524 10.371,30.299 L10.371,11.701 C10.371,11.476 10.554,11.293 10.779,11.293 L23.729,11.293 C23.955,11.293 24.138,11.476 24.138,11.701 L24.138,30.299 C24.138,30.525 23.956,30.707 23.729,30.707 z M11.188,29.89 L23.321,29.89 L23.321,12.11 L11.188,12.11 L11.188,29.89 z" fill="#333333"/>
      <path d="M24.976,12.063 L9.534,12.063 C9.308,12.063 9.125,11.88 9.125,11.655 L9.125,8.54 C9.125,8.314 9.308,8.131 9.534,8.131 L24.976,8.131 C25.201,8.131 25.385,8.314 25.385,8.54 L25.385,11.655 C25.385,11.881 25.201,12.063 24.976,12.063 z M9.942,11.246 L24.567,11.246 L24.567,8.948 L9.942,8.948 L9.942,11.246 z" fill="#333333"/>
      <path d="M24.976,33.869 L9.534,33.869 C9.308,33.869 9.125,33.686 9.125,33.46 L9.125,30.345 C9.125,30.12 9.308,29.937 9.534,29.937 L24.976,29.937 C25.201,29.937 25.385,30.12 25.385,30.345 L25.385,33.46 C25.385,33.686 25.201,33.869 24.976,33.869 z M9.942,33.052 L24.567,33.052 L24.567,30.754 L9.942,30.754 L9.942,33.052 z" fill="#333333"/>
      <g>
        <path d="M26.379,18.475 C26.154,18.475 25.971,18.292 25.971,18.066 L25.971,17.132 C25.971,16.907 26.154,16.723 26.379,16.723 C26.605,16.723 26.788,16.907 26.788,17.132 L26.788,18.066 C26.788,18.293 26.606,18.475 26.379,18.475 z" fill="#333333"/>
        <path d="M29.391,18.475 C29.166,18.475 28.983,18.292 28.983,18.066 L28.983,17.132 C28.983,16.907 29.166,16.723 29.391,16.723 C29.617,16.723 29.8,16.907 29.8,17.132 L29.8,18.066 C29.8,18.293 29.617,18.475 29.391,18.475 z" fill="#333333"/>
        <path d="M32.403,18.475 C32.177,18.475 31.994,18.292 31.994,18.066 L31.994,17.132 C31.994,16.907 32.177,16.723 32.403,16.723 C32.628,16.723 32.811,16.907 32.811,17.132 L32.811,18.066 C32.811,18.293 32.628,18.475 32.403,18.475 z" fill="#333333"/>
        <path d="M26.379,25.277 C26.154,25.277 25.971,25.093 25.971,24.868 L25.971,23.933 C25.971,23.707 26.154,23.524 26.379,23.524 C26.605,23.524 26.788,23.707 26.788,23.933 L26.788,24.868 C26.788,25.094 26.606,25.277 26.379,25.277 z" fill="#333333"/>
        <path d="M29.391,25.277 C29.166,25.277 28.983,25.093 28.983,24.868 L28.983,23.933 C28.983,23.707 29.166,23.524 29.391,23.524 C29.617,23.524 29.8,23.707 29.8,23.933 L29.8,24.868 C29.8,25.094 29.617,25.277 29.391,25.277 z" fill="#333333"/>
      </g>
      <path d="M32.391,27.777 L23.729,27.777 C23.504,27.777 23.321,27.594 23.321,27.368 L23.321,14.632 C23.321,14.406 23.504,14.223 23.729,14.223 L35.69,14.223 C35.916,14.223 36.099,14.406 36.099,14.632 L36.099,24.069 C36.099,24.295 35.916,24.478 35.69,24.478 C33.637,24.478 32.8,25.315 32.8,27.368 C32.8,27.595 32.617,27.777 32.391,27.777 z M24.138,26.96 L31.993,26.96 C32.114,24.873 33.195,23.793 35.281,23.672 L35.281,15.04 L24.138,15.04 L24.138,26.96 z" fill="#333333"/>
    </g>
  </g>
</svg>
