<?xml version="1.0" encoding="UTF-8"?>
<svg width="861px" height="463px" viewBox="0 0 861 463" version="1.1" xmlns="http://www.w3.org/2000/svg" xmlns:xlink="http://www.w3.org/1999/xlink">
    <!-- Generator: Sketch 49.2 (51160) - http://www.bohemiancoding.com/sketch -->
    <title>film</title>
    <desc>Created with Sketch.</desc>
    <defs></defs>
    <g id="Symbols" stroke="none" stroke-width="1" fill="none" fill-rule="evenodd">
        <g id="film" fill="#333333">
            <g>
                <path d="M837.101893,63.9998618 L270.924,63.9998618 C270.969,63.5048628 271,63.0058639 271,62.499865 L271,40.4999125 C271,31.4009322 263.598,23.9999482 254.5,23.9999482 L199,23.9999482 L199,15.4999665 C199,6.95298498 192.047,0 183.5,0 L87.5,0 C78.953,0 72,6.95298498 72,15.4999665 L72,23.9999482 L16.5,23.9999482 C7.402,23.9999482 0,31.4009322 0,40.4999125 L0,62.499865 C0,71.4298457 7.134,78.70683 16,78.9748294 L16,408.025119 C7.134,408.293118 0,415.570102 0,424.500083 L0,446.500036 C0,455.599016 7.402,463 16.5,463 L254.5,463 C263.598,463 271,455.599016 271,446.500036 L271,424.500083 C271,423.994084 270.969,423.495085 270.924,423.000086 L805.101893,423.000086 C818.059893,423.000086 828.601893,412.458109 828.601893,399.500137 L828.601893,375.500189 C828.601893,370.813199 832.414893,367.000207 837.101893,367.000207 C850.059893,367.000207 860.601893,356.45823 860.601893,343.500258 L860.601893,87.500811 C860.601893,74.541839 850.059893,63.9998618 837.101893,63.9998618 Z M31,407.999119 L31,78.9998294 L240,78.9998294 L240,407.999119 L31,407.999119 Z M87,15.4999665 C87,15.2249671 87.224,14.9999676 87.5,14.9999676 L183.5,14.9999676 C183.776,14.9999676 184,15.2249671 184,15.4999665 L184,23.9999482 L87,23.9999482 L87,15.4999665 Z M15,62.499865 L15,40.4999125 C15,39.6729143 15.673,38.9999158 16.5,38.9999158 L254.5,38.9999158 C255.327,38.9999158 256,39.6729143 256,40.4999125 L256,62.499865 C256,63.3268632 255.327,63.9998618 254.5,63.9998618 L16.5,63.9998618 C15.673,63.9998618 15,63.3268632 15,62.499865 Z M256,424.499083 L256,446.499036 C256,447.326034 255.327,447.999032 254.5,447.999032 L16.5,447.999032 C15.673,447.999032 15,447.326034 15,446.499036 L15,424.499083 C15,423.672085 15.673,422.999086 16.5,422.999086 L254.5,422.999086 C255.327,422.999086 256,423.672085 256,424.499083 Z M846.719568,343.499258 C846.719568,348.186248 842.906568,351.99924 838.219568,351.99924 C825.261568,351.99924 814.719568,362.541217 814.719568,375.499189 L814.719568,399.499137 C814.719568,404.186127 810.906568,407.999119 806.219568,407.999119 L255,407.999119 L255,78.9998294 L838.219568,78.9998294 C842.906568,78.9998294 846.719568,82.8128211 846.719568,87.499811 L846.719568,343.499258 Z" id="Shape" fill-rule="nonzero"></path>
                <path d="M183.5,96 C179.358,96 176,99.357 176,103.5 L176,127.5 C176,131.643 179.358,135 183.5,135 C187.642,135 191,131.643 191,127.5 L191,103.5 C191,99.357 187.642,96 183.5,96 Z" id="Shape" fill-rule="nonzero"></path>
                <path d="M215.5,96 C211.358,96 208,99.357 208,103.5 L208,127.5 C208,131.643 211.358,135 215.5,135 C219.642,135 223,131.643 223,127.5 L223,103.5 C223,99.357 219.642,96 215.5,96 Z" id="Shape" fill-rule="nonzero"></path>
                <path d="M151.5,96 C147.358,96 144,99.357 144,103.5 L144,127.5 C144,131.643 147.358,135 151.5,135 C155.642,135 159,131.643 159,127.5 L159,103.5 C159,99.357 155.642,96 151.5,96 Z" id="Shape" fill-rule="nonzero"></path>
                <path d="M119.5,96 C115.358,96 112,99.357 112,103.5 L112,127.5 C112,131.643 115.358,135 119.5,135 C123.642,135 127,131.643 127,127.5 L127,103.5 C127,99.357 123.642,96 119.5,96 Z" id="Shape" fill-rule="nonzero"></path>
                <path d="M55.5,96 C51.358,96 48,99.357 48,103.5 L48,127.5 C48,131.643 51.358,135 55.5,135 C59.642,135 63,131.643 63,127.5 L63,103.5 C63,99.357 59.642,96 55.5,96 Z" id="Shape" fill-rule="nonzero"></path>
                <path d="M87.5,96 C83.358,96 80,99.357 80,103.5 L80,127.5 C80,131.643 83.358,135 87.5,135 C91.642,135 95,131.643 95,127.5 L95,103.5 C95,99.357 91.642,96 87.5,96 Z" id="Shape" fill-rule="nonzero"></path>
                <path d="M183.5,352 C179.358,352 176,355.357 176,359.5 L176,383.5 C176,387.643 179.358,391 183.5,391 C187.642,391 191,387.643 191,383.5 L191,359.5 C191,355.357 187.642,352 183.5,352 Z" id="Shape" fill-rule="nonzero"></path>
                <path d="M215.5,352 C211.358,352 208,355.357 208,359.5 L208,383.5 C208,387.643 211.358,391 215.5,391 C219.642,391 223,387.643 223,383.5 L223,359.5 C223,355.357 219.642,352 215.5,352 Z" id="Shape" fill-rule="nonzero"></path>
                <path d="M151.5,352 C147.358,352 144,355.357 144,359.5 L144,383.5 C144,387.643 147.358,391 151.5,391 C155.642,391 159,387.643 159,383.5 L159,359.5 C159,355.357 155.642,352 151.5,352 Z" id="Shape" fill-rule="nonzero"></path>
                <path d="M119.5,352 C115.358,352 112,355.357 112,359.5 L112,383.5 C112,387.643 115.358,391 119.5,391 C123.642,391 127,387.643 127,383.5 L127,359.5 C127,355.357 123.642,352 119.5,352 Z" id="Shape" fill-rule="nonzero"></path>
                <path d="M55.5,352 C51.358,352 48,355.357 48,359.5 L48,383.5 C48,387.643 51.358,391 55.5,391 C59.642,391 63,387.643 63,383.5 L63,359.5 C63,355.357 59.642,352 55.5,352 Z" id="Shape" fill-rule="nonzero"></path>
                <path d="M87.5,352 C83.358,352 80,355.357 80,359.5 L80,383.5 C80,387.643 83.358,391 87.5,391 C91.642,391 95,387.643 95,383.5 L95,359.5 C95,355.357 91.642,352 87.5,352 Z" id="Shape" fill-rule="nonzero"></path>
                <path d="M375.5,352 C371.358,352 368,355.357 368,359.5 L368,383.5 C368,387.643 371.358,391 375.5,391 C379.642,391 383,387.643 383,383.5 L383,359.5 C383,355.357 379.642,352 375.5,352 Z" id="Shape" fill-rule="nonzero"></path>
                <path d="M375.5,96 C371.358,96 368,99.357 368,103.5 L368,127.5 C368,131.643 371.358,135 375.5,135 C379.642,135 383,131.643 383,127.5 L383,103.5 C383,99.357 379.642,96 375.5,96 Z" id="Shape-Copy-9" fill-rule="nonzero"></path>
                <path d="M343.5,352 C339.358,352 336,355.357 336,359.5 L336,383.5 C336,387.643 339.358,391 343.5,391 C347.642,391 351,387.643 351,383.5 L351,359.5 C351,355.357 347.642,352 343.5,352 Z" id="Shape" fill-rule="nonzero"></path>
                <path d="M343.5,96 C339.358,96 336,99.357 336,103.5 L336,127.5 C336,131.643 339.358,135 343.5,135 C347.642,135 351,131.643 351,127.5 L351,103.5 C351,99.357 347.642,96 343.5,96 Z" id="Shape-Copy-10" fill-rule="nonzero"></path>
                <path d="M407.5,352 C403.358,352 400,355.357 400,359.5 L400,383.5 C400,387.643 403.358,391 407.5,391 C411.642,391 415,387.643 415,383.5 L415,359.5 C415,355.357 411.642,352 407.5,352 Z" id="Shape-Copy" fill-rule="nonzero"></path>
                <path d="M407.5,96 C403.358,96 400,99.357 400,103.5 L400,127.5 C400,131.643 403.358,135 407.5,135 C411.642,135 415,131.643 415,127.5 L415,103.5 C415,99.357 411.642,96 407.5,96 Z" id="Shape-Copy-11" fill-rule="nonzero"></path>
                <path d="M311.5,352 C307.358,352 304,355.357 304,359.5 L304,383.5 C304,387.643 307.358,391 311.5,391 C315.642,391 319,387.643 319,383.5 L319,359.5 C319,355.357 315.642,352 311.5,352 Z" id="Shape" fill-rule="nonzero"></path>
                <path d="M311.5,96 C307.358,96 304,99.357 304,103.5 L304,127.5 C304,131.643 307.358,135 311.5,135 C315.642,135 319,131.643 319,127.5 L319,103.5 C319,99.357 315.642,96 311.5,96 Z" id="Shape-Copy-12" fill-rule="nonzero"></path>
                <path d="M279.5,352 C275.358,352 272,355.357 272,359.5 L272,383.5 C272,387.643 275.358,391 279.5,391 C283.642,391 287,387.643 287,383.5 L287,359.5 C287,355.357 283.642,352 279.5,352 Z" id="Shape" fill-rule="nonzero"></path>
                <path d="M279.5,96 C275.358,96 272,99.357 272,103.5 L272,127.5 C272,131.643 275.358,135 279.5,135 C283.642,135 287,131.643 287,127.5 L287,103.5 C287,99.357 283.642,96 279.5,96 Z" id="Shape-Copy-13" fill-rule="nonzero"></path>
                <path d="M535.5,352 C531.358,352 528,355.357 528,359.5 L528,383.5 C528,387.643 531.358,391 535.5,391 C539.642,391 543,387.643 543,383.5 L543,359.5 C543,355.357 539.642,352 535.5,352 Z" id="Shape" fill-rule="nonzero"></path>
                <path d="M535.5,96 C531.358,96 528,99.357 528,103.5 L528,127.5 C528,131.643 531.358,135 535.5,135 C539.642,135 543,131.643 543,127.5 L543,103.5 C543,99.357 539.642,96 535.5,96 Z" id="Shape-Copy-14" fill-rule="nonzero"></path>
                <path d="M695.5,352 C691.358,352 688,355.357 688,359.5 L688,383.5 C688,387.643 691.358,391 695.5,391 C699.642,391 703,387.643 703,383.5 L703,359.5 C703,355.357 699.642,352 695.5,352 Z" id="Shape-Copy-2" fill-rule="nonzero"></path>
                <path d="M695.5,96 C691.358,96 688,99.357 688,103.5 L688,127.5 C688,131.643 691.358,135 695.5,135 C699.642,135 703,131.643 703,127.5 L703,103.5 C703,99.357 699.642,96 695.5,96 Z" id="Shape-Copy-15" fill-rule="nonzero"></path>
                <path d="M759.5,352 C755.358,352 752,355.357 752,359.5 L752,383.5 C752,387.643 755.358,391 759.5,391 C763.642,391 767,387.643 767,383.5 L767,359.5 C767,355.357 763.642,352 759.5,352 Z" id="Shape-Copy-7" fill-rule="nonzero"></path>
                <path d="M759.5,96 C755.358,96 752,99.357 752,103.5 L752,127.5 C752,131.643 755.358,135 759.5,135 C763.642,135 767,131.643 767,127.5 L767,103.5 C767,99.357 763.642,96 759.5,96 Z" id="Shape-Copy-16" fill-rule="nonzero"></path>
                <path d="M503.5,352 C499.358,352 496,355.357 496,359.5 L496,383.5 C496,387.643 499.358,391 503.5,391 C507.642,391 511,387.643 511,383.5 L511,359.5 C511,355.357 507.642,352 503.5,352 Z" id="Shape" fill-rule="nonzero"></path>
                <path d="M503.5,96 C499.358,96 496,99.357 496,103.5 L496,127.5 C496,131.643 499.358,135 503.5,135 C507.642,135 511,131.643 511,127.5 L511,103.5 C511,99.357 507.642,96 503.5,96 Z" id="Shape-Copy-17" fill-rule="nonzero"></path>
                <path d="M663.5,352 C659.358,352 656,355.357 656,359.5 L656,383.5 C656,387.643 659.358,391 663.5,391 C667.642,391 671,387.643 671,383.5 L671,359.5 C671,355.357 667.642,352 663.5,352 Z" id="Shape-Copy-3" fill-rule="nonzero"></path>
                <path d="M663.5,96 C659.358,96 656,99.357 656,103.5 L656,127.5 C656,131.643 659.358,135 663.5,135 C667.642,135 671,131.643 671,127.5 L671,103.5 C671,99.357 667.642,96 663.5,96 Z" id="Shape-Copy-18" fill-rule="nonzero"></path>
                <path d="M567.5,352 C563.358,352 560,355.357 560,359.5 L560,383.5 C560,387.643 563.358,391 567.5,391 C571.642,391 575,387.643 575,383.5 L575,359.5 C575,355.357 571.642,352 567.5,352 Z" id="Shape-Copy" fill-rule="nonzero"></path>
                <path d="M567.5,96 C563.358,96 560,99.357 560,103.5 L560,127.5 C560,131.643 563.358,135 567.5,135 C571.642,135 575,131.643 575,127.5 L575,103.5 C575,99.357 571.642,96 567.5,96 Z" id="Shape-Copy-19" fill-rule="nonzero"></path>
                <path d="M727.5,352 C723.358,352 720,355.357 720,359.5 L720,383.5 C720,387.643 723.358,391 727.5,391 C731.642,391 735,387.643 735,383.5 L735,359.5 C735,355.357 731.642,352 727.5,352 Z" id="Shape-Copy-4" fill-rule="nonzero"></path>
                <path d="M727.5,96 C723.358,96 720,99.357 720,103.5 L720,127.5 C720,131.643 723.358,135 727.5,135 C731.642,135 735,131.643 735,127.5 L735,103.5 C735,99.357 731.642,96 727.5,96 Z" id="Shape-Copy-20" fill-rule="nonzero"></path>
                <path d="M791.5,352 C787.358,352 784,355.357 784,359.5 L784,383.5 C784,387.643 787.358,391 791.5,391 C795.642,391 799,387.643 799,383.5 L799,359.5 C799,355.357 795.642,352 791.5,352 Z" id="Shape-Copy-8" fill-rule="nonzero"></path>
                <path d="M791.5,96 C787.358,96 784,99.357 784,103.5 L784,127.5 C784,131.643 787.358,135 791.5,135 C795.642,135 799,131.643 799,127.5 L799,103.5 C799,99.357 795.642,96 791.5,96 Z" id="Shape-Copy-21" fill-rule="nonzero"></path>
                <path d="M823.5,96 C819.358,96 816,99.357 816,103.5 L816,127.5 C816,131.643 819.358,135 823.5,135 C827.642,135 831,131.643 831,127.5 L831,103.5 C831,99.357 827.642,96 823.5,96 Z" id="Shape-Copy-26" fill-rule="nonzero"></path>
                <path d="M471.5,352 C467.358,352 464,355.357 464,359.5 L464,383.5 C464,387.643 467.358,391 471.5,391 C475.642,391 479,387.643 479,383.5 L479,359.5 C479,355.357 475.642,352 471.5,352 Z" id="Shape" fill-rule="nonzero"></path>
                <path d="M471.5,96 C467.358,96 464,99.357 464,103.5 L464,127.5 C464,131.643 467.358,135 471.5,135 C475.642,135 479,131.643 479,127.5 L479,103.5 C479,99.357 475.642,96 471.5,96 Z" id="Shape-Copy-22" fill-rule="nonzero"></path>
                <path d="M631.5,352 C627.358,352 624,355.357 624,359.5 L624,383.5 C624,387.643 627.358,391 631.5,391 C635.642,391 639,387.643 639,383.5 L639,359.5 C639,355.357 635.642,352 631.5,352 Z" id="Shape-Copy-5" fill-rule="nonzero"></path>
                <path d="M631.5,96 C627.358,96 624,99.357 624,103.5 L624,127.5 C624,131.643 627.358,135 631.5,135 C635.642,135 639,131.643 639,127.5 L639,103.5 C639,99.357 635.642,96 631.5,96 Z" id="Shape-Copy-23" fill-rule="nonzero"></path>
                <path d="M439.5,352 C435.358,352 432,355.357 432,359.5 L432,383.5 C432,387.643 435.358,391 439.5,391 C443.642,391 447,387.643 447,383.5 L447,359.5 C447,355.357 443.642,352 439.5,352 Z" id="Shape" fill-rule="nonzero"></path>
                <path d="M439.5,96 C435.358,96 432,99.357 432,103.5 L432,127.5 C432,131.643 435.358,135 439.5,135 C443.642,135 447,131.643 447,127.5 L447,103.5 C447,99.357 443.642,96 439.5,96 Z" id="Shape-Copy-24" fill-rule="nonzero"></path>
                <path d="M599.5,352 C595.358,352 592,355.357 592,359.5 L592,383.5 C592,387.643 595.358,391 599.5,391 C603.642,391 607,387.643 607,383.5 L607,359.5 C607,355.357 603.642,352 599.5,352 Z" id="Shape-Copy-6" fill-rule="nonzero"></path>
                <path d="M599.5,96 C595.358,96 592,99.357 592,103.5 L592,127.5 C592,131.643 595.358,135 599.5,135 C603.642,135 607,131.643 607,127.5 L607,103.5 C607,99.357 603.642,96 599.5,96 Z" id="Shape-Copy-25" fill-rule="nonzero"></path>
                <path d="M289,308.346661 L299.595885,172.399457 C305.060457,171.466481 310.958108,171 317.289014,171 C323.61992,171 329.384291,171.466481 334.582298,172.399457 L349.97632,227.77795 C354.108069,244.304948 356.640394,255.700409 357.57337,261.964674 L358.972826,261.964674 C359.905802,255.700409 362.438126,244.304948 366.569876,227.77795 L381.763975,172.399457 C387.361829,171.466481 393.22616,171 399.357143,171 C405.488126,171 411.352456,171.466481 416.950311,172.399457 L427.546196,308.346661 C423.947575,309.279637 419.649287,309.746118 414.651203,309.746118 C409.653119,309.746118 405.488112,309.479558 402.156056,308.946429 L398.357531,244.771351 C397.291273,228.244353 396.758152,213.783447 396.758152,201.388199 L395.358696,201.388199 L371.96778,288.354425 C367.569466,289.020837 363.004617,289.354037 358.273098,289.354037 C353.541578,289.354037 348.97673,289.020837 344.578416,288.354425 L321.1875,201.388199 L319.788043,201.388199 C319.521479,217.781914 318.988358,232.24282 318.188665,244.771351 L314.39014,308.946429 C311.058084,309.479558 306.893076,309.746118 301.894992,309.746118 C296.896908,309.746118 292.59862,309.279637 289,308.346661 Z M480.925466,274.559783 L480.725543,286.954969 L494.720109,286.555124 L543.701087,286.555124 C543.701087,290.820156 543.501167,294.085522 543.10132,296.35132 C541.635215,304.881383 535.904165,309.146351 525.907997,309.146351 L469.729814,309.146351 C464.931653,309.146351 461.166486,307.713588 458.4342,304.84802 C455.701914,301.982452 454.335792,298.084005 454.335792,293.152562 L454.335792,173.598991 L455.735248,172.199534 L539.102873,172.199534 C539.769284,175.53159 540.102484,179.096837 540.102484,182.89538 C540.102484,186.693924 539.369443,190.659011 537.903339,194.790761 L480.725543,194.790761 L480.925466,208.585404 L480.925466,229.177407 L493.920419,228.977484 L527.707298,228.977484 C528.773556,232.042976 529.306677,235.708183 529.306677,239.973214 C529.306677,244.238246 528.773556,247.903453 527.707298,250.968944 L480.925466,250.968944 L480.925466,274.559783 Z M669.052407,171 L670.451863,172.399457 L670.451863,308.346661 C666.320114,309.279637 661.122185,309.746118 654.857919,309.746118 C648.593654,309.746118 643.129164,309.412917 638.464286,308.746506 L601.678571,231.376553 C596.347282,219.647716 592.348875,210.318099 589.68323,203.387422 L588.88354,203.587345 C590.349645,222.380141 591.082686,240.506253 591.082686,257.966227 L591.082686,308.746506 C587.350784,309.412917 583.119136,309.746118 578.387616,309.746118 C573.656097,309.746118 569.55773,309.412917 566.092391,308.746506 L566.092391,172.599379 C569.957576,171.666403 575.022225,171.199922 581.286491,171.199922 C587.550756,171.199922 593.015246,171.533123 597.680124,172.199534 L634.065994,249.569488 L647.060947,279.157997 L647.660714,278.958075 C646.327892,259.63215 645.661491,241.372757 645.661491,224.179348 L645.661491,187.593556 C645.661491,181.595855 646.794373,177.330887 649.060171,174.798525 C651.325969,172.266162 655.124456,171 660.455745,171 L669.052407,171 Z M804,172.199534 L804,259.565606 C804,276.225886 799.435152,289.054109 790.305318,298.05066 C781.175485,307.047211 768.280622,311.545419 751.620342,311.545419 C735.093344,311.545419 722.265121,307.047211 713.135287,298.05066 C704.005454,289.054109 699.440606,276.225886 699.440606,259.565606 L699.440606,172.399457 L700.64014,171 L710.636258,171 C715.967547,171 719.899314,172.366122 722.431677,175.098408 C724.96404,177.830694 726.230202,182.195622 726.230202,188.193323 L726.230202,259.765528 C726.230202,280.024428 734.693497,290.153727 751.620342,290.153727 C768.680468,290.153727 777.210404,280.024428 777.210404,259.765528 L777.210404,172.199534 C780.942306,171.533123 785.407195,171.199922 790.605202,171.199922 C795.803209,171.199922 800.268097,171.533123 804,172.199534 Z" id="MENU"></path>
            </g>
        </g>
    </g>
</svg>