<?xml version="1.0" encoding="UTF-8"?>
<!DOCTYPE svg PUBLIC "-//W3C//DTD SVG 1.1//EN" "http://www.w3.org/Graphics/SVG/1.1/DTD/svg11.dtd">
<svg version="1.1" xmlns="http://www.w3.org/2000/svg" xmlns:xlink="http://www.w3.org/1999/xlink" x="0" y="0" width="42" height="42" viewBox="0, 0, 42, 42">
  <g id="Background">
    <rect x="0" y="0" width="42" height="42" fill="#000000" fill-opacity="0"/>
  </g>
  <g id="Layer_1">
    <g>
      <path d="M20.96,40 C10.444,40 1.92,31.476 1.92,20.96 C1.92,10.445 10.444,1.92 20.96,1.92 C31.475,1.92 40,10.445 40,20.96 C40,31.476 31.475,40 20.96,40 z" fill="#FFFFFF"/>
      <path d="M20.96,40 C10.444,40 1.92,31.476 1.92,20.96 C1.92,10.445 10.444,1.92 20.96,1.92 C31.475,1.92 40,10.445 40,20.96 C40,31.476 31.475,40 20.96,40 z" fill-opacity="0" stroke="#333333" stroke-width="1.05"/>
    </g>
    <path d="M17.004,17.219 L16.943,12.978 L16.943,7.814 Q18.664,7.445 21,7.445 Q23.336,7.445 25.057,7.814 L25.057,12.978 L24.996,17.219 L29.176,17.158 L34.032,17.158 Q34.463,19.125 34.463,21.123 Q34.463,23.121 34.032,24.842 L29.176,24.842 L24.996,24.781 L25.057,28.961 L25.057,34.186 Q23.336,34.555 21,34.555 Q18.664,34.555 16.943,34.186 L16.943,28.961 L17.004,24.781 L12.824,24.842 L7.968,24.842 Q7.537,23.182 7.537,21.031 Q7.537,18.879 7.968,17.158 L12.824,17.158 z" fill="#333333"/>
  </g>
</svg>
